<svg xmlns="http://www.w3.org/2000/svg" width="63" height="55" viewBox="0 0 63 55">
    <path fill="#2B3844" fill-rule="evenodd" d="M55.192 9.052c-1.675.542-3.272 1.07-5 1.556.013-.631-.017-1.532 0-1.96-4.464-.542-9.516-1.087-14.127-1.58-.7-.076-1.478-.032-2.053-.19-.425-.118-.777-.585-1.267-.76-1.249-.442-4.142-.195-4.167 1.075-.024 1.22 2.208 1.535 3.623 1.265.564-.107 1.006-.504 1.449-.568.516-.076 1.299.12 1.993.19 4.387.439 9.163 1.047 13.522 1.453v1.456c-5.268 1.568-10.577 3.296-15.938 4.996-.737.232-1.711.675-2.294.695-.743.025-2.064-.65-2.959-.95-6.722-2.23-13.49-4.543-20.164-6.765V6.372C15.42 4.203 23.246 2.184 30.75.047c.795-.226 2.372.414 3.382.696C40.97 2.662 48.365 4.746 55.2 6.624l-.009 2.428zm-5.12 2.432h.12v4.489c1.038.357 1.702 2.128.785 3.098 1.664.532.824 3.688 1.026 5.753-1.336.595-3.387.562-4.77 0 .2-2.046-.628-5.168 1.027-5.69-.828-.999-.317-2.952.906-3.099V11.8c.265-.144.632-.18.905-.315zm-5.373 2.856h.001v11.949c-.08.665-1.88 1.656-2.657 2.087-7.038 3.91-20.453 2.865-25.598-1.96.004-4.113-.003-8.157 0-12.393-.006-.09-.01-.18.06-.19 4.786 1.586 9.566 3.177 14.308 4.806 4.628-1.434 9.183-2.944 13.886-4.3zM31.476 55c-9.86-4.847-19.837-9.575-29.764-14.355-2.119-2.172-2.26-8.114-.482-10.816 4.41-2.147 8.825-4.288 13.282-6.385.055 1.236-.234 2.68 0 3.856.16.802 2.403 1.92 3.14 2.341 3.356 1.918 8.066 3.226 12.919 3.226 7.254 0 12.664-1.926 16.058-5.502v-.885c2.227.935 5.617.458 7.366-.57v-4.552c2.918 1.644 5.777 3.35 8.693 4.995-10.69 5.52-21.467 10.945-32.178 16.442-9.218-4.024-18.36-8.13-27.529-12.206-1.7 1.743-1.689 6.64-.241 8.665 8.797 4.189 28.048 13.593 28.374 13.596.372.003 1.436-.704 1.993-1.011C42.6 46.587 52.34 41.36 61.843 36.155c.232-.073.076-.553.122-.823.323.274.75.438 1.025.76.047.492-.092.79-.06 1.265L31.476 55zm-.927-9.303L3.407 33.114l-.07-.528L30.48 45.169l.07.528zm.22 2.676L3.626 35.79l-.07-.527L30.7 47.845l.07.528zm.145 2.505L3.772 38.295l-.069-.528L30.845 50.35l.069.528z"/>
</svg>
