<svg xmlns="http://www.w3.org/2000/svg" width="69" height="55" viewBox="0 0 69 55">
    <path fill="#2B3844" fill-rule="evenodd" d="M67.234 13.975c2.093 5.323 2.415 12.31.483 12.976-1.45.998-4.347 1.83-6.28 3.161-.483.5-2.415 1.997-2.415 1.997s-2.415-.832-4.991-.5c-2.738.333-3.22 5.324-3.865 3.827-.966-2.163-4.025-3.494-6.28-2.828-4.025 1.164-2.415 4.99-3.059 5.157-.644.166-3.381-2.496-5.957-.5-3.22 2.663.16 5.657-.483 6.655-.483.832-.966.333-1.933 1.498-1.61 1.996-.805 3.16-.483 3.826.322.666-.805 1.497-1.932 2.33-.805.665-2.254-.333-3.06-1.165-.482-.5-.482-1.997-.321-2.662.16-.666.322-.5 1.127-1.497.805-.999.483-1.664-.161-1.664-1.45.166-2.415 1.996-3.542 2.329-1.128.333-3.543-.333-3.865-.832-.322-.499-.483-1.497.161-2.329.644-.832 5.636-5.324 6.119-6.488.483-1.165.16-1.83-.644-1.83-.805 0-4.992 4.99-6.28 6.155-1.288.999-1.771 1.498-2.737 1.664-.966.166-2.254-1.33-2.898-2.495-.645-1.331.644-2.995.966-3.494.805-.998 5.313-5.157 5.796-5.823 1.127-1.33.322-2.163-.322-2.163-.805-.166-5.152 4.825-6.28 5.823-1.127.998-1.77 1.664-2.898 1.664-1.127.166-2.254-1.331-2.576-2.828-.322-1.498 2.576-5.49 3.542-6.655.966-1.165 5.314-5.657 7.085-6.987 3.381-2.496 9.178-6.821 10.95-7.986 1.126-.665 3.542-1.165 4.508-.166.966.831 2.898 4.492 4.83 6.488 1.771 1.83 4.992 2.662 7.085 1.164 2.093-1.663 2.576-4.325 1.771-5.323-2.093-2.662-2.415-5.324-2.898-6.821-.483-1.497-1.771-2.995-2.416-3.66-.805-.998-4.508-1.83-4.991-2.662C37.768.83 39.7.166 41.632 0c1.772 0 4.67 2.33 5.314 2.662 3.06 1.996 5.474 2.329 6.924 2.495 1.449.167 2.898-.665 5.152-1.663 2.415-.999 6.119 5.157 8.212 10.48zM5.887 21.96c1.932 1.997 4.508 2.496 3.864 3.328-3.381 2.994-3.22 5.323-3.381 4.824-.644-1.164-5.314-3.66-5.958-4.159-.644-.5-.644-7.986.805-11.313 1.771-3.826 3.22-6.322 4.992-8.484 1.771-2.163 4.186-3.161 4.508-2.829.322.333 5.797 2.496 7.246 2.33 1.61 0 9.178-3.162 10.305-3.494 1.127-.333 3.381.166 3.864.166.483 0 8.212 3.161 9.34 4.16 1.126.997 2.093 5.49 2.254 5.822 0 .333 2.576 3.66 2.576 3.66s0 .666-1.288 1.331c-1.45.832-2.416.665-3.382 0-2.415-1.664-2.898-3.993-3.864-4.991-1.127-1.33-.644-6.155-.644-6.155-1.288 0-1.771 4.491-3.22 3.493-1.45-.998-3.382-.832-7.407 1.83-4.026 2.496-8.856 6.322-13.042 9.982-1.128.832-4.831 1.165-7.568.5zM54.675 33.94c2.576-1.165 4.347.332 5.474 1.996 1.61 2.163 1.45 4.658-.805 6.82-3.06 2.83-4.67-1.83-5.474-1.33-.644.5 3.38 2.995-.322 5.99-3.06 2.495-5.475-.833-5.636-.666-.322.166 1.61 2.329-.483 4.159-2.576 2.163-4.186-.5-4.509-.167-.322.5 1.45 1.997-.483 3.66-1.77 1.498-4.347-.166-5.635-1.164-1.288-1.165-2.093-1.664-2.415-2.662-.322-.998-.483-3.327.644-4.16 1.127-.83 2.254 0 3.22.5.805.5-1.288-1.664-1.932-3.327-.644-1.664-.322-3.161 1.127-4.326 1.45-.998 4.186 0 5.474 1.83.967 1.165 1.61 0 1.128-.832-1.128-1.83-.483-3.992 2.093-4.824 2.576-.666 3.864.832 5.313 3.327.966 1.664 1.288.5 1.127-.333-.483-1.996.645-3.826 2.094-4.491z"/>
</svg>
