<svg xmlns="http://www.w3.org/2000/svg" width="16" height="15" viewBox="0 0 16 15">
    <path fill="#02529C" fill-rule="nonzero" d="M2.935 10.943h1.203v-1.67H2.935a.326.326 0 1 1 0-.651h1.203V7.5a.326.326 0 0 1 .652 0v1.122H7.5V7.5a.326.326 0 1 1 .652 0v1.122h2.71V7.5a.326.326 0 1 1 .652 0v1.122h1.203a.326.326 0 1 1 0 .652h-1.203v.835a.326.326 0 1 1-.652 0v-.835h-2.71v1.67h1.686a.326.326 0 1 1 0 .652H8.152v1.121a.326.326 0 1 1-.652 0v-1.121H4.79v1.121a.326.326 0 1 1-.652 0v-1.121H2.935a.326.326 0 1 1 0-.653zm1.855-1.67v1.67H7.5v-1.67H4.79zm6.483-6.012a.92.92 0 0 1-.838-.978V.978A.92.92 0 0 1 11.273 0h.28a.92.92 0 0 1 .838.978v1.305a.92.92 0 0 1-.838.978h-.28zm-7.174 0a.92.92 0 0 1-.838-.978V.978A.92.92 0 0 1 4.099 0h.28a.92.92 0 0 1 .838.978v1.305a.92.92 0 0 1-.838.978H4.1zm9.923-1.957c.9 0 1.63.73 1.63 1.63V13.37c0 .9-.73 1.63-1.63 1.63H1.63C.73 15 0 14.27 0 13.37V8.804a.326.326 0 1 1 .652 0v4.566c0 .54.438.978.978.978h12.392c.54 0 .978-.438.978-.978V5.707a.163.163 0 0 0-.163-.164H.815a.163.163 0 0 0-.163.164v.815a.326.326 0 1 1-.652 0V2.935c0-.9.73-1.63 1.63-1.63h.979c.09 0 .163.072.163.162v.816c0 .72.584 1.304 1.304 1.304h.326c.72 0 1.305-.584 1.305-1.304v-.816c0-.09.073-.163.163-.163h3.913c.09 0 .163.073.163.163v.816c0 .72.584 1.304 1.304 1.304h.326c.72 0 1.304-.584 1.304-1.304v-.816c0-.09.073-.163.163-.163h.979z"/>
</svg>
