<svg xmlns="http://www.w3.org/2000/svg" width="16" height="15" viewBox="0 0 16 15">
    <path fill="#2B3844" fill-rule="evenodd" d="M2.48 9.222c-.24.062-.48.157-.712.29L.048 4.747a.823.823 0 0 1 .497-1.052L10.68.052a.828.828 0 0 1 1.064.479l1.448 3.91H3.816c-.688 0-1.336.588-1.336 1.263v3.518zm12.368-4.389c.64 0 1.152.502 1.152 1.115v6.532a1.15 1.15 0 0 1-1.152 1.146H5.744C5.256 14.411 4.352 15 3.32 15 1.776 15 .513 13.76.513 12.236c0-1.381 1.023-2.528 2.367-2.732V5.948c0-.613.528-1.115 1.184-1.115h10.784zm-10.784.628c-.296 0-.544.22-.544.487v.77h11.84v-.77c0-.275-.224-.487-.512-.487H4.064zm-.744 8.91c1.192 0 2.168-.957 2.168-2.135 0-1.177-.976-2.135-2.168-2.135-1.192 0-2.168.958-2.168 2.135 0 1.178.976 2.136 2.168 2.136zm11.528-1.373a.52.52 0 0 0 .512-.518V8.366H3.52V9.48c1.456.102 2.608 1.295 2.608 2.755 0 .267-.04.526-.112.762h8.832zm-12.024.495a.293.293 0 0 1-.224-.095l-.92-.902a.309.309 0 0 1 0-.448.323.323 0 0 1 .456 0l.688.675 1.68-1.656a.323.323 0 0 1 .456 0 .309.309 0 0 1 0 .447l-1.912 1.877a.328.328 0 0 1-.224.102zm11.656-.83c-.176 0-.32-.225-.32-.5s.144-.5.32-.5c.176 0 .32.225.32.5s-.144.5-.32.5zm-1.04 0h-1.92c-.176 0-.32-.225-.32-.5s.144-.5.32-.5h1.92c.176 0 .32.225.32.5s-.144.5-.32.5zm-2.8 0c-.176 0-.32-.225-.32-.5s.144-.5.32-.5c.176 0 .32.225.32.5s-.144.5-.32.5zm-1.04 0h-.88c-.176 0-.32-.225-.32-.5s.144-.5.32-.5h.88c.176 0 .32.225.32.5s-.144.5-.32.5zm4.88-1.628h-2.64a.318.318 0 0 1-.32-.314c0-.173.144-.314.32-.314h2.64c.176 0 .32.141.32.314a.318.318 0 0 1-.32.314z"/>
</svg>
