<svg xmlns="http://www.w3.org/2000/svg" width="59" height="55" viewBox="0 0 59 55">
    <path fill="#2B3844" fill-rule="evenodd" d="M9.213 33.931c-.891.231-1.783.578-2.644 1.069L.18 17.465a3.02 3.02 0 0 1 1.842-3.87L39.67.19c1.604-.577 3.358.203 3.952 1.763L49 16.339H14.175c-2.555 0-4.962 2.166-4.962 4.65v12.942zM54.76 18c2.356 0 4.24 1.829 4.24 4.057V45.83C59 48.143 57.086 50 54.76 50H21.255c-1.796 2.857-5.123 5-8.92 5C6.651 55 2 50.486 2 44.943c0-5.029 3.769-9.2 8.715-9.943V22.057c0-2.228 1.943-4.057 4.357-4.057H54.76zm-39.688 2.286c-1.089 0-2.002.8-2.002 1.771v2.8h43.575v-2.8c0-1-.825-1.771-1.885-1.771H15.072zm-2.738 32.428c4.387 0 7.979-3.485 7.979-7.771s-3.592-7.772-7.979-7.772c-4.387 0-7.979 3.486-7.979 7.772s3.592 7.771 7.98 7.771zm42.426-5a1.9 1.9 0 0 0 1.885-1.885V30.857H13.07v4.057c5.359.372 9.598 4.715 9.598 10.029 0 .971-.147 1.914-.412 2.771H54.76zM10.643 49c-.33 0-.63-.112-.839-.336L6.36 45.439a1.068 1.068 0 0 1 0-1.598 1.251 1.251 0 0 1 1.708 0l2.576 2.411 6.29-5.916a1.251 1.251 0 0 1 1.708 0c.479.449.479 1.15 0 1.599l-7.16 6.7c-.24.225-.539.365-.838.365zM53.8 47c-.66 0-1.2-.9-1.2-2s.54-2 1.2-2c.66 0 1.2.9 1.2 2s-.54 2-1.2 2zm-3.9 0h-7.2c-.66 0-1.2-.9-1.2-2s.54-2 1.2-2h7.2c.66 0 1.2.9 1.2 2s-.54 2-1.2 2zm-10.5 0c-.66 0-1.2-.9-1.2-2s.54-2 1.2-2c.66 0 1.2.9 1.2 2s-.54 2-1.2 2zm-3.9 0h-3.3c-.66 0-1.2-.9-1.2-2s.54-2 1.2-2h3.3c.66 0 1.2.9 1.2 2s-.54 2-1.2 2zm18.33-7h-9.66c-.643 0-1.17-.45-1.17-1s.527-1 1.17-1h9.66c.643 0 1.17.45 1.17 1s-.527 1-1.17 1z"/>
</svg>
