<svg xmlns="http://www.w3.org/2000/svg" width="15" height="15" viewBox="0 0 15 15">
    <path fill="#2B3844" fill-rule="nonzero" d="M5.685 0a5.685 5.685 0 1 1 0 11.371A5.685 5.685 0 0 1 5.685 0zm0 1.089a4.597 4.597 0 1 0 0 9.193 4.597 4.597 0 0 0 0-9.193zm4.606 8.689l1.267 1.267.4-.4L15 13.687 13.687 15l-3.042-3.042.4-.4-1.268-1.267c.18-.161.353-.332.514-.513zM7.26 2.444c.041 0 .081.01.117.03a3.63 3.63 0 0 1 1.739 4.39.242.242 0 1 1-.457-.156 3.143 3.143 0 0 0-1.508-3.806.242.242 0 0 1 .11-.458zM5.5 2.06c.311-.016.627.008.94.074a.242.242 0 1 1-.1.473 3.145 3.145 0 0 0-3.67 3.967.242.242 0 1 1-.464.137 3.63 3.63 0 0 1 3.294-4.65zm.591.93c.541.08 1.058.324 1.472.718.44.417.588.993.633 1.551.044.56-.01 1.12-.01 1.554 0 .463.22 1.53.22 1.53a.242.242 0 1 1-.472.101s-.231-1.03-.231-1.631c0-.47.05-1.014.01-1.515-.04-.5-.165-.938-.482-1.239a2.24 2.24 0 0 0-2.542-.383c-.847.42-1.373 1.308-1.24 2.477.147 1.3-.112 2.342-.112 2.342a.242.242 0 0 1-.47-.116s.238-.963.101-2.171c-.153-1.344.482-2.457 1.505-2.965A2.728 2.728 0 0 1 6.09 2.99zM4.558 4.31a.242.242 0 0 1 .165.42c-.313.298-.417.728-.435 1.26-.017.531.058 1.14.058 1.726 0 .599-.233 1.419-.233 1.419a.242.242 0 1 1-.468-.128s.218-.83.218-1.291c0-.543-.077-1.155-.058-1.742.02-.587.141-1.173.585-1.594a.242.242 0 0 1 .168-.07zm1.796-.225a.242.242 0 0 1 .176.07c.433.411.586.955.631 1.498.045.542-.009 1.1-.009 1.606v1.58a.242.242 0 0 1-.484 0V7.26c0-.538.051-1.085.011-1.567-.04-.481-.16-.881-.483-1.188a.242.242 0 0 1 .158-.419zm-.747.948a.861.861 0 0 1 .475.253c.17.17.223.39.241.584.018.196.005.383.008.538L6.38 8.84a.242.242 0 1 1-.484.01l-.047-2.433c-.004-.184.007-.362-.006-.503-.013-.14-.045-.228-.102-.285-.084-.085-.144-.11-.205-.118a.474.474 0 0 0-.232.037c-.194.07-.314.317-.287.56a.242.242 0 1 1-.48.054c-.05-.433.155-.907.6-1.07a.954.954 0 0 1 .47-.06zM4.955 6.68a.242.242 0 0 1 .254.211c.089.617.154 1.206-.018 1.899a.242.242 0 1 1-.469-.116c.15-.605.096-1.107.008-1.714a.242.242 0 0 1 .225-.28z"/>
</svg>
