<svg xmlns="http://www.w3.org/2000/svg" width="55" height="55" viewBox="0 0 55 55">
    <path fill="#2B3844" fill-rule="nonzero" d="M20.847 0a20.847 20.847 0 0 1 20.847 20.847c0 11.513-9.334 20.847-20.847 20.847C9.333 41.694 0 32.36 0 20.847 0 9.333 9.333 0 20.847 0zm0 3.992c-9.309 0-16.855 7.546-16.855 16.855 0 9.308 7.546 16.855 16.855 16.855 9.308 0 16.855-7.547 16.855-16.855 0-9.309-7.547-16.855-16.855-16.855zm16.886 31.86l4.647 4.646 1.465-1.466L55 50.187 50.187 55 39.032 43.845l1.466-1.465-4.65-4.647a22.75 22.75 0 0 0 1.885-1.882zM26.626 8.961c.15 0 .296.037.427.11 5.8 3.056 8.507 9.9 6.374 16.098a.887.887 0 1 1-1.675-.575 11.524 11.524 0 0 0-5.527-13.955.887.887 0 0 1 .4-1.679zm-6.462-1.407c1.141-.06 2.298.028 3.444.271a.887.887 0 1 1-.368 1.734A11.532 11.532 0 0 0 9.786 24.106a.887.887 0 1 1-1.701.502 13.308 13.308 0 0 1 12.08-17.053zm2.167 3.405a9.984 9.984 0 0 1 5.398 2.636c1.611 1.53 2.155 3.64 2.319 5.688.163 2.05-.036 4.108-.036 5.696 0 1.7.809 5.61.809 5.61a.887.887 0 1 1-1.734.373s-.847-3.781-.847-5.983c0-1.725.185-3.718.039-5.553-.147-1.836-.607-3.44-1.77-4.544a8.215 8.215 0 0 0-9.32-1.404c-3.104 1.543-5.035 4.796-4.548 9.081.542 4.766-.41 8.59-.41 8.59a.888.888 0 0 1-1.724-.427s.875-3.533.372-7.962c-.56-4.928 1.768-9.006 5.517-10.87 1.88-.931 3.952-1.23 5.935-.931zm-5.618 4.845a.887.887 0 0 1 .605 1.539c-1.148 1.09-1.53 2.669-1.594 4.618-.064 1.95.213 4.18.213 6.33 0 2.196-.857 5.203-.857 5.203a.889.889 0 1 1-1.714-.47s.799-3.04.799-4.734c0-1.99-.284-4.235-.214-6.387.07-2.152.519-4.3 2.145-5.844a.887.887 0 0 1 .617-.255zm6.585-.825a.887.887 0 0 1 .644.252c1.59 1.511 2.15 3.505 2.315 5.495.164 1.99-.032 4.035-.032 5.889v5.795a.888.888 0 0 1-1.776 0v-5.795c0-1.972.188-3.978.042-5.744-.145-1.766-.588-3.232-1.772-4.356a.887.887 0 0 1 .579-1.536zm-2.74 3.473c.618.092 1.225.412 1.744.93.619.62.817 1.426.883 2.142.066.715.017 1.403.029 1.972l.175 8.917a.887.887 0 1 1-1.773.035l-.174-8.92c-.013-.676.025-1.327-.023-1.843s-.163-.839-.372-1.048c-.31-.309-.53-.4-.754-.433-.223-.033-.494.006-.85.137-.71.26-1.15 1.163-1.051 2.054a.887.887 0 1 1-1.763.197c-.178-1.588.57-3.323 2.203-3.92.524-.191 1.11-.312 1.727-.22zm-2.39 6.045a.887.887 0 0 1 .932.773c.326 2.26.564 4.421-.065 6.963a.887.887 0 1 1-1.72-.427c.548-2.216.35-4.058.029-6.284a.887.887 0 0 1 .825-1.025z"/>
</svg>
