<svg xmlns="http://www.w3.org/2000/svg" width="41" height="55" viewBox="0 0 41 55">
    <path fill="#2B3844" fill-rule="evenodd" d="M40.05 49.303c1.229 1.263 1.27 3.357.096 4.676A2.973 2.973 0 0 1 37.92 55a2.953 2.953 0 0 1-2.128-.917l-9.948-10.218H15.436c-1.474 0-2.417-.831-3.357-1.93-.985-1.152.687-2.048 1.445-2.714l2.182-1.915 1.693-1.488c.396-.347.746-.786 1.27-.89.315-.064.657-.01.976.007l2.554.13 3.906.2c1.258 0 2.37.616 3.104 1.58l10.84 12.458zm-27-30.768c.342.158.659.369.947.622l5.907 3.874 6.897-1.071c1.677-.26 3.246.992 3.49 2.8.243 1.808-.923 3.485-2.608 3.747l-7.802 1.212a2.908 2.908 0 0 1-1.738-.274l-1.048-.521.343 1.48c.104.45.338.95.248 1.423-.097.503-.634.877-.98 1.181l-3.029 2.66-1.462 1.285c-.357.313-1.087 1.222-1.431.344-.073-.187-.096-.416-.142-.611l-.371-1.602-1.71-7.377-.972-4.192c-.184-.793-.167-1.722.089-2.497.121-.368.304-.752.523-1.066.565-.805 1.393-1.403 2.306-1.648a3.712 3.712 0 0 1 2.503.214c-.004-.011.04.017.04.017zm9.88 26.573c1.702 0 3.081 1.48 3.08 3.307 0 1.828-1.379 3.308-3.08 3.308H8.512c-1.447 0-2.699-1.082-3.008-2.599L.072 22.522c-.365-1.784.687-3.547 2.35-3.938 1.66-.39 3.303.737 3.667 2.522l3.675 17.997.592 2.899.635 3.106h11.94zM1.583 8.643c-.368-.244-.13-.453.121-.625.41-.283.824-.562 1.235-.842a14814.776 14814.776 0 0 1 8.232-5.614L12.694.523l.543-.37c.346-.237.593-.226.68.228.08.419.172.835.26 1.253l.248 1.173c.035.165.102.375.04.543l-.009.021c-.082.183-.342.332-.491.441l-1.452 1.063-4.39 3.218c-.657.48-1.314.962-1.97 1.443l-.734.537c-.395.29-.733.473-1.185.196-.341-.208-.68-.417-1.02-.626l-1.155-.708c-.158-.097-.321-.189-.477-.292zm7.05.641l4.231-3.1 1.672-1.225c.183-.134.365-.269.548-.401.42-.303.66-.044 1.056.18l.566.32c.358.2.243.389-.043.596-.245.178-.497.349-.744.523l-.604.424-.301.212c-.122.085-.226.143-.093.27a6.118 6.118 0 0 1 1.947 4.433c.003 3.214-2.567 5.96-5.558 5.936a5.184 5.184 0 0 1-2.504-.675 5.823 5.823 0 0 1-2.257-2.35 6.181 6.181 0 0 1-.701-2.492c-.009-.14-.01-.28-.024-.417a.372.372 0 0 0-.003-.026c-.02-.169.07-.199.196-.291l.376-.276.754-.552 1.487-1.089zm18.14 23.687a1.392 1.392 0 0 1-.01-1.871l11.452-12.437a1.173 1.173 0 0 1 1.742-.01c.484.513.489 1.352.01 1.87L28.514 32.961a1.186 1.186 0 0 1-.876.392c-.313 0-.626-.127-.866-.382z"/>
</svg>
