<svg xmlns="http://www.w3.org/2000/svg" width="18" height="12" viewBox="0 0 18 12">
    <path fill="#2B3844" fill-rule="nonzero" d="M1.35 0C1.143 0 .948.05.773.132l7.868 7.514c.166.158.552.158.718 0L17.227.132A1.362 1.362 0 0 0 16.65 0H1.35zM.134.764a1.318 1.318 0 0 0-.134.57v9.333c0 .264.078.508.21.715l5.542-5.257L.134.764zm17.732 0l-5.618 5.361 5.541 5.257c.133-.207.211-.451.211-.715V1.333c0-.204-.051-.396-.134-.57zM6.398 6.743L.935 11.931c.131.041.27.069.415.069h15.3c.146 0 .284-.028.415-.07l-5.463-5.187-1.61 1.542a1.446 1.446 0 0 1-1.983 0l-1.61-1.542z"/>
</svg>
