<svg xmlns="http://www.w3.org/2000/svg" width="59" height="55" viewBox="0 0 59 55">
    <path fill="#2B3844" fill-rule="evenodd" d="M37.603 17.679c-4.919 0-8.906-3.958-8.906-8.84S32.684 0 37.603 0c4.918 0 8.906 3.957 8.906 8.84 0 4.881-3.988 8.839-8.906 8.839zM18.8 41.25h10.885v9.821c0 2.161-1.78 3.929-3.958 3.929H5.938c-2.178 0-3.959-1.768-3.959-3.929V41.25h10.885v2.946h5.937V41.25zm-3.958-2.946h1.98v3.928h-1.98v-3.928zM27.707 27.5c2.177 0 3.958 1.768 3.958 3.929v7.857H18.801v-2.947h-5.937v2.947H0v-7.857C0 29.268 1.781 27.5 3.958 27.5h5.937c0-2.16 1.782-3.929 3.959-3.929h3.958c2.177 0 3.958 1.768 3.958 3.929h5.937zm-15.832 0h7.916c0-1.08-.89-1.964-1.98-1.964h-3.957c-1.089 0-1.98.884-1.98 1.964zm47.102 18.464a4.216 4.216 0 0 1-2.573 4.322c-1.088.294-2.078.589-3.068.884l-.89-16.795-1.781 17.384c-6.136 1.375-12.469 1.67-19.197.884.098-.491.197-1.08.197-1.572V41.25h1.98v-9.821c0-3.241-2.672-5.893-5.938-5.893h-4.354A5.855 5.855 0 0 0 19.89 22a3.967 3.967 0 0 1 2.77-1.866l9.995-1.473 4.948 16.696 4.947-16.696 9.896 1.571c1.781.295 3.166 1.572 3.364 3.34l3.167 22.392z"/>
</svg>
