<svg xmlns="http://www.w3.org/2000/svg" x="0px" y="0px" width="15" height="15" viewBox="0 0 192 192" style=" fill:#000000;">
    <g fill="none" fill-rule="nonzero" stroke="none" stroke-width="1" stroke-linecap="butt" stroke-linejoin="miter" stroke-miterlimit="10" stroke-dasharray="" stroke-dashoffset="0" font-family="none" font-weight="none" font-size="none" text-anchor="none" style="mix-blend-mode: normal">
        <path d="M0,192v-192h192v192z" fill="none"></path>
        <g fill="#7e7f7f">
            <g id="surface1">
                <path d="M64,56c0,4.42188 -3.57812,8 -8,8h-24c-4.42188,0 -8,-3.57812 -8,-8v-24c0,-4.42188 3.57812,-8 8,-8h24c4.42188,0 8,3.57812 8,8z"></path>
                <path d="M116,56c0,4.42188 -3.57812,8 -8,8h-24c-4.42188,0 -8,-3.57812 -8,-8v-24c0,-4.42188 3.57812,-8 8,-8h24c4.42188,0 8,3.57812 8,8z"></path><path d="M168,56c0,4.42188 -3.57812,8 -8,8h-24c-4.42188,0 -8,-3.57812 -8,-8v-24c0,-4.42188 3.57812,-8 8,-8h24c4.42188,0 8,3.57812 8,8z"></path><path d="M64,108c0,4.42188 -3.57812,8 -8,8h-24c-4.42188,0 -8,-3.57812 -8,-8v-24c0,-4.42188 3.57812,-8 8,-8h24c4.42188,0 8,3.57812 8,8z"></path><path d="M116,108c0,4.42188 -3.57812,8 -8,8h-24c-4.42188,0 -8,-3.57812 -8,-8v-24c0,-4.42188 3.57812,-8 8,-8h24c4.42188,0 8,3.57812 8,8z"></path><path d="M168,108c0,4.42188 -3.57812,8 -8,8h-24c-4.42188,0 -8,-3.57812 -8,-8v-24c0,-4.42188 3.57812,-8 8,-8h24c4.42188,0 8,3.57812 8,8z"></path><path d="M64,160c0,4.42188 -3.57812,8 -8,8h-24c-4.42188,0 -8,-3.57812 -8,-8v-24c0,-4.42188 3.57812,-8 8,-8h24c4.42188,0 8,3.57812 8,8z"></path><path d="M116,160c0,4.42188 -3.57812,8 -8,8h-24c-4.42188,0 -8,-3.57812 -8,-8v-24c0,-4.42188 3.57812,-8 8,-8h24c4.42188,0 8,3.57812 8,8z"></path><path d="M168,160c0,4.42188 -3.57812,8 -8,8h-24c-4.42188,0 -8,-3.57812 -8,-8v-24c0,-4.42188 3.57812,-8 8,-8h24c4.42188,0 8,3.57812 8,8z"></path>
            </g>
        </g>
    </g>
</svg>