<svg xmlns="http://www.w3.org/2000/svg" width="37" height="55" viewBox="0 0 37 55">
    <path fill="#2B3844" fill-rule="nonzero" d="M31.826 7.4h-6.317v-.583C25.509 3.03 22.32 0 18.469 0c-3.85 0-7.038 3.088-7.038 6.817v.582H5.114C2.286 7.4 0 9.613 0 12.352v37.696C0 52.786 2.286 55 5.114 55h26.772C34.714 55 37 52.786 37 50.048V12.352c-.06-2.739-2.346-4.953-5.174-4.953zM18.47 2.912c2.226 0 4.03 1.748 4.03 3.904v3.204H14.44V6.817c-.06-2.156 1.805-3.904 4.03-3.904zm10.288 44.979H8.182v-2.913h20.576v2.913zm-.301-6.759H8.483c-.361 0-.602-.233-.602-.582v-1.748c0-1.573.903-3.03 2.347-3.787l3.91-2.04c.18-.116.301-.29.301-.524V31.23a8.861 8.861 0 0 1-1.444-2.913c-.481-.408-.722-.99-.722-1.632v-1.69c0-.465.18-.931.421-1.281v-1.049c-.12-1.107.301-2.272 1.023-3.146 1.023-1.107 2.587-1.69 4.753-1.69s3.73.583 4.753 1.69a4.025 4.025 0 0 1 1.023 3.146v1.049c.3.35.42.816.42 1.282v1.69c0 .757-.42 1.514-1.142 1.922-.301.816-.722 1.631-1.264 2.389l-.18.233v1.223c0 .233.12.408.3.525l4.152 2.039c1.504.757 2.466 2.214 2.466 3.903v1.632c.06.35-.24.582-.541.582z"/>
</svg>
