<?xml version="1.0" encoding="UTF-8"?>
<svg width="21px" height="25px" viewBox="0 0 21 25" version="1.1" xmlns="http://www.w3.org/2000/svg" xmlns:xlink="http://www.w3.org/1999/xlink">
    <!-- Generator: sketchtool 52.6 (67491) - http://www.bohemiancoding.com/sketch -->
    <title>62A1DE60-FE24-46C4-9117-BD6FF90D8BA9</title>
    <desc>Created with sketchtool.</desc>
    <g id="Symbols" stroke="none" stroke-width="1" fill="none" fill-rule="evenodd">
        <g id="OperatorDashboardHeader/Dashboard" transform="translate(-1278.000000, -23.000000)" fill="#02529C">
            <g id="Group-3" transform="translate(1274.000000, 19.000000)">
                <path d="M14.5580389,6.75102287 C13.5395705,6.57050299 12.4972904,6.57050299 11.478822,6.75102287 L11.478822,5.91806399 C11.478822,5.90843717 11.478822,5.89874207 11.478822,5.88911525 C11.4836894,5.33885951 11.7818516,4.83303221 12.2609211,4.56229705 C12.7399905,4.29156189 13.3271289,4.29708177 13.8010236,4.57677606 C14.2749183,4.85647036 14.5635177,5.367814 14.5580389,5.91806399 L14.5580389,6.75102287 Z M13.0183622,29.3630572 C11.4320948,29.3636267 10.1100499,28.1484899 9.97717469,26.5677974 L16.0595497,26.5677974 C15.9266745,28.1484899 14.6046295,29.3636267 13.0183622,29.3630572 Z M20.8887995,19.8085409 L5.14792489,19.8085409 C5.13124428,19.8073839 5.11468796,19.804849 5.09842528,19.8009623 L5.09842528,15.6014158 C5.09842528,11.1736249 8.64648874,7.57148736 13.0183622,7.57148736 C17.3902356,7.57148736 20.9382991,11.1736249 20.9382991,15.6014158 L20.9382991,19.8009623 C20.9220364,19.804849 20.9054801,19.8073839 20.8887995,19.8085409 Z M5.81531612,20.7643954 L20.2214082,20.7643954 C21.5600215,20.7643954 22.645182,21.8495558 22.645182,23.1881691 C22.645182,24.5267824 21.5600215,25.6119429 20.2214082,25.6119429 L5.81531612,25.6119429 C4.47670282,25.6119429 3.39154233,24.5267824 3.39154233,23.1881691 C3.39154233,21.8495558 4.47670282,20.7643954 5.81531612,20.7643954 Z" id="Combined-Shape" transform="translate(13.018362, 16.863057) rotate(-18.000000) translate(-13.018362, -16.863057) "></path>
            </g>
        </g>
    </g>
</svg>