<svg xmlns="http://www.w3.org/2000/svg" width="55" height="55" viewBox="0 0 55 55">
    <g fill="none" fill-rule="evenodd">
        <path d="M27.5 3.804c-13.175 0-23.893 10.718-23.893 23.893 0 13.174 10.719 23.892 23.893 23.892 13.174 0 23.893-10.718 23.893-23.892 0-13.175-10.718-23.893-23.893-23.893zm0 5.153a7.801 7.801 0 1 1 0 15.602 7.801 7.801 0 0 1 0-15.602zm-14.653 31.41c0-8.093 6.56-14.653 14.653-14.653s14.653 6.56 14.653 14.653-29.306 8.093-29.306 0z"/>
        <path fill="#2B3844" fill-rule="nonzero" d="M27.5.487C12.496.487.29 12.693.29 27.697c0 15.003 12.206 27.21 27.21 27.21 15.004 0 27.21-12.207 27.21-27.21C54.71 12.693 42.504.487 27.5.487zm0 51.102c-13.175 0-23.893-10.718-23.893-23.892 0-13.175 10.718-23.893 23.893-23.893s23.893 10.718 23.893 23.893c0 13.174-10.718 23.892-23.893 23.892z"/>
        <circle cx="27.5" cy="16.758" r="7.801" fill="#2B3844"/>
        <path fill="#2B3844" d="M27.5 25.714c-8.093 0-14.653 6.56-14.653 14.653s29.306 8.093 29.306 0-6.56-14.653-14.653-14.653z"/>
    </g>
</svg>
