<svg xmlns="http://www.w3.org/2000/svg" width="55" height="55" viewBox="0 0 55 55">
    <path fill="#2B3844" fill-rule="evenodd" d="M49.029 27.736c0 .078.078.078 0 0l.078 17.521-.078.079-9.665 4.085a.169.169 0 0 1-.157-.157V32.686c0-.157-.078-.157-.157-.157L30.014 36.3c-.078.079-.078.079-.078.157v16.814c0 .079 0 .158-.079.158L26.243 55h-.236l-22.55-9.586c-.078 0-.078-.078-.078-.078V28.52c0-.078 0-.078.078-.078l22.55 4.714c0 .079.079 0 .079 0l11.157-18.936c.078 0 .157-.078.157 0l11.629 13.515zm5.892-1.886c.158.157.079.393-.235.393H52.17c-.078 0-.078 0-.157-.079L37.007 8.643c-.078-.157-.314-.157-.393 0L24.436 29.307c0 .079-.157.079-.236.079L.157 24.279c-.078 0-.157-.158-.157-.236v-.314-.236L12.65 5.42c.079 0 .157-.078.236-.078h17.128a.169.169 0 0 0 .157-.157V1.493a.169.169 0 0 0-.157-.157h-.471a.169.169 0 0 1-.157-.157V.157c0-.078.078-.157.157-.157H35.2c.079 0 .157.079.079.157V1.18a.169.169 0 0 1-.158.157h-.471a.169.169 0 0 0-.157.157v3.693c0 .078.078.157.157.157h2.593c.078 0 .078 0 .157.078L54.921 25.85z"/>
</svg>
