<svg xmlns="http://www.w3.org/2000/svg" width="18" height="18" viewBox="0 0 18 18">
    <path fill="#FFF" fill-rule="evenodd" d="M1.658 0h12.884L18 3.32v12.316c0 .876-.758 1.614-1.658 1.614H1.658c-.9 0-1.658-.738-1.658-1.614V1.614C0 .738.758 0 1.658 0zm2.747.461c-.426 0-.758.37-.758.784v4.566c0 .416.332.785.758.785h8.906c.426 0 .805-.37.805-.785V1.245c0-.415-.38-.784-.805-.784H4.405zM2.985 8.58a.987.987 0 0 0-.996.968v6.135c0 .507.427.968.995.968h12.032a.987.987 0 0 0 .995-.968V9.547a.987.987 0 0 0-.995-.968H2.984zM10.5 1.5h2.25V6H10.5V1.5z"/>
</svg>
