<svg xmlns="http://www.w3.org/2000/svg" width="15" height="15" viewBox="0 0 15 15">
    <path fill="#0091D1" fill-rule="evenodd" d="M2.83.006h2.474v4.679H2.829V.005zM14.045 15L.943 14.994A.943.943 0 0 1 0 14.051V.943C0 .423.422 0 .943 0h.754v5.25c0 .313.254.567.566.567h9.127a.566.566 0 0 0 .566-.566V0h.754c.252 0 .493.102.67.281l1.333 1.333a.943.943 0 0 1 .276.668v11.775c0 .52-.423.943-.943.943zM1.694 8.11v5.49h11.593V8.11a.607.607 0 0 0-.64-.566H2.334a.607.607 0 0 0-.641.566zM6.437.006h4.395v4.679H6.437V.005zm5.115 11.301a.566.566 0 1 1 0 1.132H3.43a.566.566 0 0 1 0-1.132h8.123zm0-2.442a.566.566 0 1 1 0 1.131H3.43a.566.566 0 0 1 0-1.131h8.123z"/>
</svg>
