<svg xmlns="http://www.w3.org/2000/svg" width="28" height="28" viewBox="0 0 28 28">
    <path fill="#2B3844" fill-rule="nonzero" d="M13.036 0A13.014 13.014 0 0 0 .537 9.322a13.028 13.028 0 0 0 5.405 14.633 13.004 13.004 0 0 0 15.551-1.054l4.855 4.858a1 1 0 0 0 1.411-1.412l-4.854-4.859a13.032 13.032 0 0 0 1.934-13.904A13.012 13.012 0 0 0 13.036 0zm0 24.043c-6.081 0-11.01-4.934-11.01-11.02 0-6.086 4.929-11.02 11.01-11.02 6.08 0 11.01 4.934 11.01 11.02 0 2.923-1.16 5.725-3.225 7.792a11.006 11.006 0 0 1-7.785 3.228z"/>
</svg>
