<svg xmlns="http://www.w3.org/2000/svg" width="66" height="65" viewBox="0 0 66 65">
    <path fill="#0091D1" fill-rule="evenodd" d="M40.042 19.427c-.502 0-1.005-.4-1.005-1s.402-1 1.005-1h10.052c.603 0 1.005.4 1.005 1s-.402 1-1.005 1H40.042zm-12.664 0c-.603 0-1.005-.4-1.005-1s.402-1 1.005-1h7.74c.602 0 1.004.4 1.004 1s-.402 1-1.005 1h-7.74zm31.762 5.896c.603 0 1.005.4 1.005 1s-.402 1-1.005 1h-7.438c-.603 0-1.005-.4-1.005-1s.402-1 1.005-1h7.438zm-31.762 2c-.603 0-1.005-.5-1.005-1 0-.6.402-1 1.005-1H45.47c.603 0 1.005.4 1.005 1s-.402 1-1.005 1H27.378zm31.762 5.896c.603 0 1.005.4 1.005.999 0 .6-.402 1-1.005 1H41.751c-.603 0-1.005-.4-1.005-1s.402-1 1.005-1H59.14zm-31.762 1.998c-.603 0-1.005-.5-1.005-.999 0-.6.402-1 1.005-1h8.342c.604 0 1.006.4 1.006 1s-.402 1-1.006 1h-8.342zm31.762 5.797c.603 0 1.005.5 1.005 1 0 .6-.402.999-1.005.999h-6.03c-.604 0-1.006-.4-1.006-1s.402-.999 1.005-.999h6.031zm-31.762 1.999c-.603 0-1.005-.4-1.005-1s.402-.999 1.005-.999h19.7c.603 0 1.006.4 1.006 1s-.403.999-1.006.999h-19.7zm31.762 5.896c.603 0 1.005.4 1.005 1s-.402 1-1.005 1H40.847c-.603 0-1.006-.4-1.006-1s.403-1 1.006-1H59.14zm-31.762 2c-1.407 0-1.407-2 0-2h8.644c.603 0 1.005.4 1.005 1s-.402 1-1.005 1h-8.644zm31.762 5.796c.603 0 1.005.5 1.005 1 0 .599-.402.999-1.005.999h-7.438c-.603 0-1.005-.4-1.005-1s.402-1 1.005-1h7.438zm-12.464 0c.603 0 1.005.5 1.106 1 0 .599-.402.999-1.005.999h-19.4c-.602 0-1.004-.4-1.004-1s.402-1 1.005-1h19.298zm18.997-36.179c.1.1.201.2.201.4.201.3.1-2.399.1 43.075 0 .6-.401.999-1.004.999H21.448c-.604 0-1.006-.4-1.006-1v-8.494c-.703.2-2.613 1.799-3.216.3L.139 14.63c-.402-1 .1-2.2 1.105-2.599L29.991.138c1.005-.4 2.211.1 2.614 1.1l4.12 9.894h19.098c.704 0 .201-.2 9.85 9.394zM56.93 14.63v5.696h5.729l-5.73-5.696zM18.734 54.106l1.91-.8V40.615l-1.307.5c-.503.3-1.106 0-1.307-.5-.301-.5 0-1.1.503-1.299l2.01-.8v-4.397l-3.619 1.5c-.502.299-1.105 0-1.306-.5-.302-.5 0-1.1.502-1.3l4.423-1.799v-4.497l-5.93 2.399c-.503.3-1.106 0-1.307-.5-.302-.5 0-1.1.503-1.3l6.734-2.798v-4.397l-8.242 3.398c-.503.3-1.106 0-1.307-.5-.301-.5 0-1.1.503-1.3l9.046-3.697V14.43L9.989 18.827c-.502.3-1.106 0-1.307-.5-.301-.5 0-1.099.503-1.299l11.358-4.597v-.2c0-.1 0-.3.1-.4.101-.3.503-.6.905-.6h13.067l-3.82-9.194L2.05 13.93l16.685 40.176zm3.82 8.895h41.511V22.325h-8.141c-.604 0-1.006-.4-1.006-1V13.23H22.553v49.771z"/>
</svg>
